<svg width="17" height="16" viewBox="0 0 17 16" fill="none" xmlns="http://www.w3.org/2000/svg">
<g clip-path="url(#clip0_766_3268)">
<path d="M16.0236 4.26667C16.0229 3.96629 15.9032 3.67843 15.6909 3.46605C15.4785 3.25365 15.1906 3.13403 14.8903 3.13333H10.9356C10.8525 2.47261 10.5312 1.86496 10.0318 1.42443C9.53246 0.983907 8.88948 0.740822 8.22358 0.740822C7.55769 0.740822 6.9147 0.983907 6.41534 1.42443C5.91598 1.86496 5.59462 2.47261 5.51158 3.13333H1.55692C1.25655 3.13403 0.968696 3.25365 0.756307 3.46605C0.54392 3.67843 0.424288 3.96629 0.423584 4.26667V4.87733C0.424483 5.57395 0.6084 6.25813 0.956917 6.86133V14.1333C0.957621 14.4337 1.07725 14.7215 1.28964 14.9339C1.50203 15.1463 1.78989 15.2659 2.09025 15.2667H14.3569C14.6573 15.2659 14.9451 15.1463 15.1575 14.9339C15.3699 14.7215 15.4896 14.4337 15.4902 14.1333V6.86133C15.8388 6.25813 16.0227 5.57395 16.0236 4.87733V4.26667ZM8.22358 1.39999C8.71353 1.40053 9.18734 1.57511 9.56049 1.89259C9.93366 2.21008 10.1819 2.64979 10.2609 3.13333H6.18625C6.26526 2.64979 6.5135 2.21008 6.88668 1.89259C7.25982 1.57511 7.73364 1.40053 8.22358 1.39999ZM1.09025 4.26667C1.09095 4.14309 1.14034 4.0248 1.22771 3.93744C1.31507 3.85008 1.43337 3.80069 1.55692 3.8H14.8903C15.0138 3.80069 15.1321 3.85008 15.2194 3.93744C15.3068 4.0248 15.3562 4.14309 15.3569 4.26667V4.87733C15.3562 5.75832 15.0059 6.60304 14.3829 7.22603C13.76 7.84899 12.9153 8.19928 12.0343 8.2H4.41292C3.5319 8.19928 2.68718 7.84899 2.06422 7.22603C1.44125 6.60304 1.09096 5.75832 1.09025 4.87733V4.26667ZM7.49025 8.86667H8.95692V10.1333C8.95692 10.3278 8.87966 10.5143 8.74212 10.6519C8.6046 10.7894 8.41806 10.8667 8.22358 10.8667C8.0291 10.8667 7.84257 10.7894 7.70505 10.6519C7.5675 10.5143 7.49025 10.3278 7.49025 10.1333V8.86667ZM14.3569 14.6H2.09025C1.9667 14.5993 1.84841 14.5499 1.76104 14.4625C1.67367 14.3752 1.62429 14.2569 1.62358 14.1333V7.73333C2.36681 8.46653 3.36889 8.87752 4.41292 8.87733H6.81292V10.1333C6.81292 10.5046 6.96041 10.8607 7.22297 11.1233C7.48553 11.3858 7.84161 11.5333 8.21292 11.5333C8.58422 11.5333 8.9403 11.3858 9.20286 11.1233C9.46542 10.8607 9.61292 10.5046 9.61292 10.1333V8.86667H12.0129C13.0628 8.87533 14.0734 8.46784 14.8236 7.73333V14.1333C14.8229 14.2569 14.7735 14.3752 14.6861 14.4625C14.5988 14.5499 14.4805 14.5993 14.3569 14.6Z" fill="#2E2E2E"/>
</g>
<defs>
<clipPath id="clip0_766_3268">
<rect width="16" height="14.9333" fill="white" transform="translate(0.176514 0.533333)"/>
</clipPath>
</defs>
</svg>
