<svg width="16" height="16" viewBox="0 0 16 16" fill="none" xmlns="http://www.w3.org/2000/svg">
<g clip-path="url(#clip0_867_686)">
<path d="M13.6666 3.99996C13.6666 3.91155 13.6315 3.82677 13.569 3.76426C13.5065 3.70174 13.4217 3.66663 13.3333 3.66663H13C12.9116 3.66663 12.8268 3.70174 12.7643 3.76426C12.7017 3.82677 12.6666 3.91155 12.6666 3.99996V6.66663H13.6666V3.99996Z" fill="#6F6F6F"/>
<path d="M12 3.99996C12 3.91155 11.9649 3.82677 11.9024 3.76426C11.8399 3.70174 11.7551 3.66663 11.6667 3.66663H11.3333C11.2449 3.66663 11.1601 3.70174 11.0976 3.76426C11.0351 3.82677 11 3.91155 11 3.99996V6.66663H12V3.99996Z" fill="#6F6F6F"/>
<path d="M10.3333 3.99996C10.3333 3.91155 10.2981 3.82677 10.2356 3.76426C10.1731 3.70174 10.0883 3.66663 9.99992 3.66663H9.66659C9.57818 3.66663 9.49339 3.70174 9.43088 3.76426C9.36837 3.82677 9.33325 3.91155 9.33325 3.99996V6.66663H10.3333V3.99996Z" fill="#6F6F6F"/>
<path d="M3 5.99998H4.33333V6.66665H6V5.99998H7.33333C7.59855 5.99998 7.8529 5.89462 8.04044 5.70709C8.22798 5.51955 8.33333 5.2652 8.33333 4.99998V2.33331C8.33333 2.0681 8.22798 1.81374 8.04044 1.62621C7.8529 1.43867 7.59855 1.33331 7.33333 1.33331H3C2.73478 1.33331 2.48043 1.43867 2.29289 1.62621C2.10536 1.81374 2 2.0681 2 2.33331V4.99998C2 5.2652 2.10536 5.51955 2.29289 5.70709C2.48043 5.89462 2.73478 5.99998 3 5.99998ZM2.66667 2.33331C2.66667 2.24491 2.70179 2.16012 2.7643 2.09761C2.82681 2.0351 2.91159 1.99998 3 1.99998H7.33333C7.42174 1.99998 7.50652 2.0351 7.56904 2.09761C7.63155 2.16012 7.66667 2.24491 7.66667 2.33331V4.99998C7.66667 5.08839 7.63155 5.17317 7.56904 5.23568C7.50652 5.29819 7.42174 5.33331 7.33333 5.33331H3C2.91159 5.33331 2.82681 5.29819 2.7643 5.23568C2.70179 5.17317 2.66667 5.08839 2.66667 4.99998V2.33331Z" fill="#6F6F6F"/>
<path d="M14.6666 7.33331H1.33329C1.15648 7.33331 0.986912 7.40355 0.861888 7.52858C0.736864 7.6536 0.666626 7.82317 0.666626 7.99998V8.33331C0.666626 8.51012 0.736864 8.67969 0.861888 8.80472C0.986912 8.92974 1.15648 8.99998 1.33329 8.99998H1.66663V14.3333C1.66663 14.4217 1.70175 14.5065 1.76426 14.569C1.82677 14.6315 1.91155 14.6666 1.99996 14.6666C2.08836 14.6666 2.17315 14.6315 2.23566 14.569C2.29817 14.5065 2.33329 14.4217 2.33329 14.3333V8.99998H9.33329V14.3333C9.33329 14.4217 9.36841 14.5065 9.43092 14.569C9.49344 14.6315 9.57822 14.6666 9.66663 14.6666C9.75503 14.6666 9.83982 14.6315 9.90233 14.569C9.96484 14.5065 9.99996 14.4217 9.99996 14.3333V13H13.6666V14.3333C13.6666 14.4217 13.7017 14.5065 13.7643 14.569C13.8268 14.6315 13.9116 14.6666 14 14.6666C14.0884 14.6666 14.1732 14.6315 14.2357 14.569C14.2982 14.5065 14.3333 14.4217 14.3333 14.3333V8.99998H14.6666C14.8434 8.99998 15.013 8.92974 15.138 8.80472C15.2631 8.67969 15.3333 8.51012 15.3333 8.33331V7.99998C15.3333 7.82317 15.2631 7.6536 15.138 7.52858C15.013 7.40355 14.8434 7.33331 14.6666 7.33331ZM13.6666 11.6666C13.6666 11.7551 13.6315 11.8398 13.569 11.9023C13.5065 11.9649 13.4217 12 13.3333 12H10.3333C10.2449 12 10.1601 11.9649 10.0976 11.9023C10.0351 11.8398 9.99996 11.7551 9.99996 11.6666V11.3333C9.99996 11.2449 10.0351 11.1601 10.0976 11.0976C10.1601 11.0351 10.2449 11 10.3333 11H13.3333C13.4217 11 13.5065 11.0351 13.569 11.0976C13.6315 11.1601 13.6666 11.2449 13.6666 11.3333V11.6666ZM13.6666 9.66665C13.6666 9.75505 13.6315 9.83984 13.569 9.90235C13.5065 9.96486 13.4217 9.99998 13.3333 9.99998H10.3333C10.2449 9.99998 10.1601 9.96486 10.0976 9.90235C10.0351 9.83984 9.99996 9.75505 9.99996 9.66665V9.33331C9.99996 9.24491 10.0351 9.16012 10.0976 9.09761C10.1601 9.0351 10.2449 8.99998 10.3333 8.99998H13.3333C13.4217 8.99998 13.5065 9.0351 13.569 9.09761C13.6315 9.16012 13.6666 9.24491 13.6666 9.33331V9.66665Z" fill="#6F6F6F"/>
</g>
<defs>
<clipPath id="clip0_867_686">
<rect width="16" height="14" fill="white" transform="translate(0 1)"/>
</clipPath>
</defs>
</svg>
